# xmcd
#
# Track frame offsets:
#	150
#	11803
#	23204
#	33753
#	44941
#	57675
#	70231
#	85532
#	97933
#	107075
#	120254
#	130064
#	142423
#	154297
#	165658
#	177456
#	189296
#	199694
#	209695
#	221397
#	235479
#	247452
#	257496
#	268482
#	280994
#	292579
#	305209
#	315000
#
# Disc length: 4367 seconds
#
# Revision: 1
# Processed by: cddbd v1.5.2PL0 Copyright (c) Steve Scherf et al.
# Submitted via: audiograbber 1.83.01
#
DISCID=a9110d1c
DTITLE=Various Artist - The Twisted Wheel
DYEAR=2013
DGENRE=Soul
TTITLE0=Bobby 'Blue' Bland - Turn On Your Love Light
TTITLE1=The Sharpees - Do The 45
TTITLE2=Little Richard - Dance What You Wanna
TTITLE3=Bobby Marchan - Get Down With It
TTITLE4=Big Sambo and The House Wreckers - At The Party
TTITLE5=Bo Diddley - Road Runner
TTITLE6=Mitch Ryder and The Detroit Wheels - Jenny Take A Ride!
TTITLE7=James Booker - Smacksie
TTITLE8=Joe Haywood - Talk To Me Baby (Put Some Sugar In My Ear)
TTITLE9=Alvin Cash and The Registers - You Shot Me Through The Greese
TTITLE10=Benny Spellman - Fortune Teller
TTITLE11=Ernie K-Doe (Ernest Kador) - A Certain Girl
TTITLE12=Alvin Robinson - Searchin'
TTITLE13=Solomon Burke - Cry To Me
TTITLE14=Marv Johnson - I Love The Way You Love
TTITLE15=Ronnie and The Manhattans - Long Time No See
TTITLE16=Gene Chandler - (Gonna Be) Good Times
TTITLE17=Betty Everett - Getting Mighty Crowded
TTITLE18=The Ballads - I Can't See Your Love
TTITLE19=The Ad Libs - The Boy From New York City
TTITLE20=The Esquires - And Get Away
TTITLE21=The Dells - It's Not Unusual
TTITLE22=Sir Lattimore Brown - Shake And Vibrate
TTITLE23=Jackie Lee - Bring It Home
TTITLE24=Jamo Thomas - I Spy (For The FBI)
TTITLE25=The Salem Travelers - Wade In The Water
TTITLE26=The Rubaiyats - Omar Khayyam
TTITLE27=Fats Domino - It Keeps Rainin'
EXTD=The Twisted Wheel: Brazennose and Whitnorth Street, Manchester 1963 - 1971 (
EXTD=Club Soul M1)
EXTT0=
EXTT1=
EXTT2=
EXTT3=
EXTT4=
EXTT5=
EXTT6=
EXTT7=
EXTT8=
EXTT9=
EXTT10=
EXTT11=
EXTT12=
EXTT13=
EXTT14=
EXTT15=
EXTT16=
EXTT17=
EXTT18=
EXTT19=
EXTT20=
EXTT21=
EXTT22=
EXTT23=
EXTT24=
EXTT25=
EXTT26=
EXTT27=
PLAYORDER=
